<?xml version="1.0" encoding="UTF-8" standalone="no"?>
<!-- Generator: Adobe Illustrator 16.0.0, SVG Export Plug-In . SVG Version: 6.00 Build 0)  -->

<svg
   version="1.1"
   id="Layer_1"
   x="0px"
   y="0px"
   width="512px"
   height="512px"
   viewBox="0 0 512 512"
   enable-background="new 0 0 512 512"
   xml:space="preserve"
   sodipodi:docname="decrease_white.svg"
   inkscape:version="1.3.2 (091e20e, 2023-11-25, custom)"
   xmlns:inkscape="http://www.inkscape.org/namespaces/inkscape"
   xmlns:sodipodi="http://sodipodi.sourceforge.net/DTD/sodipodi-0.dtd"
   xmlns="http://www.w3.org/2000/svg"
   xmlns:svg="http://www.w3.org/2000/svg"><defs
   id="defs1" /><sodipodi:namedview
   id="namedview1"
   pagecolor="#ffffff"
   bordercolor="#000000"
   borderopacity="0.25"
   inkscape:showpageshadow="2"
   inkscape:pageopacity="0.0"
   inkscape:pagecheckerboard="0"
   inkscape:deskcolor="#d1d1d1"
   inkscape:zoom="1.4459781"
   inkscape:cx="180.50066"
   inkscape:cy="224.41557"
   inkscape:window-width="2400"
   inkscape:window-height="1261"
   inkscape:window-x="2391"
   inkscape:window-y="-3"
   inkscape:window-maximized="1"
   inkscape:current-layer="Layer_1" />
<path
   d="m 512,480 v 32 H 32 0 V 480 0 H 32 V 480 Z M 458.125,300.375 413,181 382.719,218 116.25,0 96,24.781 l 266.438,218 -30.281,37.031 z M 96,66.125 V 448 h 64 V 118.5 Z m 96,78.563 V 448 h 64 V 197.031 Z M 288,305 v 143 h 64 V 315.469 Z m 96,15.688 V 448 h 64 V 331.125 Z"
   id="path1"
   inkscape:label="path1"
   style="display:inline" />
<path
   style="fill:#ffffff;stroke:#ffd131;stroke-width:0"
   d="M 96.474488,257.564 V 67.334222 l 1.901827,1.388547 c 1.046005,0.763701 15.128165,12.231856 31.293695,25.484789 l 29.39187,24.096242 0.17432,164.74498 0.17432,164.74499 H 127.94251 96.474488 Z"
   id="path2" /><path
   style="fill:#ffffff;stroke:#ffd131;stroke-width:0"
   d="M 0.3457867,255.88216 V 0.3457867 H 15.906188 31.466589 V 240.32175 480.29772 H 271.44256 511.41853 v 15.5604 15.56041 H 255.88216 0.3457867 Z"
   id="path3" /><path
   style="fill:#ffffff;stroke:#ffd131;stroke-width:0"
   d="m 192.60319,296.97314 c 0,-82.95135 0.25014,-150.71689 0.55586,-150.5901 0.30573,0.12678 14.46064,11.58961 31.45537,25.47295 l 30.8995,25.24243 0.0112,125.34768 0.0112,125.34767 h -31.46659 -31.46659 z"
   id="path4" /><path
   style="fill:#ffffff;stroke:#ffd131;stroke-width:0"
   d="m 395.23419,289.78806 c -32.9016,-5.41955 -60.35538,-9.97493 -61.00839,-10.12307 -0.89549,-0.20314 2.46142,-4.72408 13.65857,-18.39471 8.16523,-9.96895 14.84588,-18.28478 14.84588,-18.47961 0,-0.19483 -59.77087,-49.26031 -132.82416,-109.03442 C 146.19071,65.258148 97.210967,24.739776 97.430945,24.166522 97.905419,22.930062 115.90314,1.0373601 116.44515,1.0373601 c 0.23731,0 60.1585,48.8679119 133.1582,108.5953599 72.99969,59.72745 132.97502,108.50931 133.27849,108.40413 0.30347,-0.10518 7.17854,-8.29756 15.27792,-18.20529 l 14.72617,-18.01405 20.39311,53.91384 c 27.10678,71.663 24.38515,64.08047 22.96753,63.98808 -0.6552,-0.0427 -28.11077,-4.51182 -61.01238,-9.93137 z"
   id="path5" /><path
   style="fill:#ffffff;stroke:#ffd131;stroke-width:0"
   d="m 288.04032,376.50676 v -71.287 l 1.90183,0.39695 c 1.89532,0.39559 60.93729,10.08654 61.45213,10.08654 0.14893,0 0.27079,29.72037 0.27079,66.04526 v 66.04526 h -31.81238 -31.81237 z"
   id="path6" /><path
   style="fill:#ffffff;stroke:#ffd131;stroke-width:0"
   d="m 384.16902,384.51481 c 0,-36.5939 0.26002,-63.27897 0.61658,-63.27897 0.83459,0 59.48879,9.58072 61.45213,10.03774 l 1.55604,0.36221 v 58.07899 58.07899 H 415.9814 384.16902 Z"
   id="path7" /></svg>
